<?xml version="1.0" encoding="UTF-8"?> <svg xmlns="http://www.w3.org/2000/svg" id="Layer_2" data-name="Layer 2" viewBox="0 0 388.42 126.18"><defs><style> .cls-1 { fill: #292d7f; } .cls-2 { fill: #fcf4de; } .cls-2, .cls-3 { fill-rule: evenodd; } .cls-3 { fill: #e63020; } .cls-4 { fill: #292c7e; } </style></defs><g id="Livello_4" data-name="Livello 4"><g><ellipse class="cls-4" cx="55" cy="57.5" rx="43.77" ry="57.5"></ellipse><g><path class="cls-1" d="m.06,53.78c0,.21.03.35.11.43.05.05.12.08.2.09.13,0,.24-.07.3-.19.04-.07.07-.18.1-.32.05-.25.12-.43.22-.54.08-.09.2-.13.39-.13l4.86.08c.19,0,.31.04.38.12.06.06.13.19.18.49.06.35.19.52.41.53h0c.14,0,.32-.09.32-.51,0-.21,0-.43-.01-.66v-.51s.02-.56.02-.56c.02-.26.03-.49.03-.7,0-.42-.17-.52-.31-.52h0c-.21,0-.35.17-.42.51-.06.3-.14.41-.19.45-.05.04-.16.09-.4.09l-4.86-.08c-.18,0-.31-.05-.39-.14-.09-.11-.16-.29-.2-.54-.02-.14-.05-.25-.09-.33-.06-.13-.17-.2-.3-.2h0c-.14.02-.32.08-.33.51,0,.27,0,.52.02.73,0,.25.01.47.01.64,0,.15-.01.33-.03.55-.03.2-.04.44-.05.71Z"></path><path class="cls-1" d="m2.3,59.85s.07,0,.11,0c.37-.01.7-.11.96-.28.26-.17.48-.37.65-.6.16-.22.34-.51.54-.86.2-.36.37-.63.5-.83.12-.18.26-.34.41-.46.13-.11.27-.16.43-.17.37-.02.62.07.79.25.17.19.26.43.28.75,0,.24-.06.44-.21.62-.16.19-.43.36-.78.52-.07.02-.16.08-.22.23-.04.09-.06.18-.05.28.01.27.19.36.33.35.16,0,.33-.03.5-.08.16-.04.36-.1.6-.19.09-.03.17-.07.24-.14.07-.07.12-.14.15-.22.15-.42.22-.82.21-1.21-.03-.77-.26-1.37-.67-1.78-.42-.41-.95-.6-1.58-.59-.33.01-.63.11-.88.28-.24.16-.45.36-.61.59-.16.21-.33.5-.54.87l-.12.22c-.18.31-.32.55-.44.71-.1.14-.23.25-.38.33-.15.08-.35.13-.6.14-.34,0-.61-.08-.82-.27-.21-.2-.32-.45-.33-.77-.01-.29.09-.55.29-.79.21-.25.56-.45,1.04-.59.17-.05.26-.19.25-.38,0-.1-.03-.19-.08-.26-.07-.1-.17-.15-.3-.14l-.24.02c-.48.05-.78.1-.92.14-.1.03-.2.09-.31.21h-.01c-.36.47-.53,1.03-.5,1.68.03.75.26,1.36.7,1.81.42.43.95.65,1.6.65Z"></path><path class="cls-1" d="m1.47,66.36c.03-.08.05-.19.06-.33.02-.24.07-.43.16-.56.08-.11.21-.17.4-.19l4.2-.48c.4-.05.68-.07.84-.06.13,0,.17.03.17.02,0,0,.04.06.06.26l.12,1.08c.04.36,0,.54-.03.63-.04.1-.11.17-.21.19-.17.05-.29.1-.37.14-.19.11-.2.27-.19.33,0,.08.06.22.28.28.11.03.21.04.31.03h.13c.1-.03.18-.02.27,0l.33.03c.13,0,.22,0,.28,0,.03,0,.05,0,.06,0,.07,0,.15-.03.21-.05.2-.08.21-.22.2-.27-.01-.11-.07-.23-.17-.33-.06-.06-.1-.11-.12-.14-.12-.2-.2-.5-.25-.92l-.43-3.76c-.02-.15-.02-.29,0-.42.02-.13.04-.16.04-.16.08-.05.16-.11.24-.19.09-.09.18-.18.16-.3-.01-.1-.08-.33-.46-.33-.23,0-.43-.02-.58-.05-.15-.02-.32-.07-.51-.14-.11-.04-.21-.05-.31-.04-.12.01-.2.05-.25.12-.04.05-.06.12-.05.19.01.13.09.25.24.36.12.09.23.16.34.2.1.04.18.11.25.23.08.13.12.28.14.43l.06.5c.02.16.03.3.04.43,0,.11,0,.21.01.27,0,0-.02.03-.12.06-.1.03-.35.08-.92.15l-4.14.47c-.19.02-.33,0-.43-.1-.11-.1-.21-.27-.28-.5-.04-.14-.08-.24-.13-.31-.08-.12-.19-.17-.32-.16h0c-.15.02-.31.13-.26.55.03.27.07.51.11.72.04.25.07.46.09.64.02.15.03.33.04.55,0,.2.02.44.05.71.05.42.23.49.38.47.13-.01.23-.1.28-.23Z"></path><path class="cls-1" d="m3.02,71.54l4.78-.89c.18-.03.32-.02.4.04.07.05.17.16.27.44.12.33.29.48.5.44.07-.01.14-.06.18-.12.07-.1.08-.24.04-.45-.04-.21-.09-.43-.14-.65l-.1-.5-.09-.56c-.03-.26-.07-.49-.11-.69-.08-.42-.26-.47-.41-.45-.21.04-.31.24-.31.59,0,.31-.06.43-.09.48-.05.08-.18.13-.37.17l-4.78.89c-.18.03-.31.01-.41-.06-.11-.09-.21-.25-.3-.49-.05-.14-.1-.23-.15-.3-.09-.11-.21-.16-.33-.14h0c-.14.03-.3.15-.22.56.05.27.11.51.17.71.06.25.11.46.14.63.03.14.05.33.08.54.01.2.05.44.1.7.07.36.22.45.35.45.02,0,.04,0,.06,0,.13-.02.22-.11.26-.25.02-.08.03-.19.03-.34,0-.25.03-.45.11-.57.06-.11.18-.17.36-.21Z"></path><path class="cls-1" d="m9.39,76.47s.07,0,.1,0c.05,0,.07,0,.07,0,0,0,.05.05.1.25l.27,1.05c.09.35.08.53.06.63-.03.11-.09.18-.18.22-.16.07-.27.14-.34.19-.18.13-.16.29-.14.35.02.08.09.21.31.24.04,0,.08,0,.12,0,.07,0,.13,0,.19-.02l.12-.03c.1-.02.18-.04.27-.03l.34-.02c.26-.02.31-.03.33-.04.07-.02.14-.05.21-.08.19-.11.17-.25.16-.3-.03-.11-.1-.22-.22-.31-.07-.05-.12-.1-.14-.12-.14-.18-.27-.47-.38-.87l-.96-3.66c-.04-.14-.06-.28-.06-.42,0-.13.02-.17.02-.16.07-.06.14-.14.21-.22.08-.1.15-.21.12-.32-.02-.1-.12-.31-.5-.27-.23.02-.43.03-.58.03-.15,0-.33-.02-.53-.07-.11-.02-.21-.02-.32,0-.32.08-.27.33-.26.36.03.13.13.23.29.32.13.07.25.12.36.14.1.02.2.09.28.19.09.12.16.26.2.41l.13.49c.04.16.08.3.1.42.02.11.04.21.05.27,0,0-.02.03-.11.07-.14.07-.44.16-.89.28l-4.04,1.05c-.19.05-.33.04-.44-.03-.13-.08-.24-.23-.34-.45-.06-.13-.12-.23-.17-.29-.09-.11-.22-.15-.34-.12-.12.03-.2.13-.22.27,0,.08,0,.18.04.31.07.26.14.5.22.7.08.24.14.45.18.62.04.14.08.32.12.53.03.2.08.43.15.7.11.41.3.46.44.42.12-.03.21-.13.24-.27.02-.08.02-.19,0-.34-.02-.24,0-.44.08-.57.06-.12.18-.2.37-.25l4.09-1.07c.39-.1.67-.16.82-.18Z"></path><path class="cls-1" d="m10.35,87.29c.15-.05.44-.15.87-.3.43-.15.86-.29,1.27-.41.52-.17.66.05.71.14.07.11.28.44.57.34.07-.03.13-.08.16-.15.05-.11.04-.25-.04-.45l-.14-.35c-.08-.18-.15-.33-.19-.45l-.27-.76c-.07-.2-.16-.31-.27-.36-.07-.03-.15-.03-.22,0-.26.1-.22.46-.21.61,0,.1-.09.2-.18.27-.16.13-.38.25-.64.35-1.04.42-1.74.7-2.15.85-.77.29-1.44.36-1.98.21-.53-.14-.9-.51-1.13-1.12-.22-.6-.22-1.12,0-1.6s.7-.85,1.42-1.12l2.83-1.06c.14-.05.28-.06.41-.03.17.04.22.09.24.12.1.13.17.21.23.26.14.11.26.09.33.07.14-.05.27-.2.12-.59-.05-.14-.1-.25-.13-.32l-.19-.48c-.05-.14-.11-.31-.18-.54l-.15-.44c-.15-.4-.34-.42-.48-.37-.28.1-.24.49-.23.63.01.1-.01.19-.07.28-.06.09-.18.17-.36.24l-3.09,1.16c-.84.31-1.42.82-1.73,1.5-.3.68-.28,1.5.06,2.42.19.52.5.95.89,1.29.4.33.87.55,1.4.64.17.03.34.04.51.04.36,0,.73-.06,1.1-.19.4-.13.69-.24.88-.31Z"></path><path class="cls-1" d="m10.64,93.74l3.77-1.9c.36-.18.62-.3.76-.35.09-.03.14-.03.16-.03h0s.06.04.15.22l.49.97c.16.33.19.51.19.6,0,.11-.05.19-.13.25-.14.11-.24.19-.3.26-.14.17-.09.32-.06.37.04.07.13.19.36.17.11,0,.21-.04.3-.08l.12-.06c.09-.04.17-.07.26-.09l.32-.09c.25-.08.29-.1.32-.11.07-.03.13-.07.18-.12.16-.14.12-.28.09-.33-.05-.1-.14-.19-.28-.26-.08-.04-.13-.07-.16-.09-.18-.14-.36-.4-.55-.77l-1.7-3.38c-.07-.13-.12-.27-.15-.4-.03-.13-.01-.17-.02-.16.05-.07.11-.16.16-.26.06-.12.1-.23.05-.34-.04-.09-.19-.28-.55-.15-.22.07-.41.13-.56.16-.14.03-.3.04-.49.04-.12,0-.24.02-.35.07-.07.04-.12.08-.16.13-.06.08-.07.19-.02.27.06.12.18.2.36.26.14.04.28.05.39.07.11,0,.21.04.31.13.12.1.21.22.28.36l.23.45c.07.15.14.27.19.39.05.1.08.19.1.25,0,0-.01.03-.09.1-.09.07-.3.2-.81.46l-3.73,1.88c-.17.09-.32.11-.44.06-.14-.05-.29-.18-.43-.37-.09-.12-.16-.2-.23-.25-.11-.08-.24-.1-.36-.04h0c-.13.07-.25.23-.05.6.12.24.24.46.36.64.13.22.23.41.31.57.07.13.14.3.23.5.07.19.17.41.29.65.1.19.19.29.3.33.03,0,.06.01.09.01.04,0,.09-.01.13-.03.11-.06.18-.17.18-.31,0-.09-.02-.19-.06-.33-.07-.23-.08-.43-.04-.58.04-.13.14-.23.31-.32Z"></path><path class="cls-1" d="m20.17,100.87c.28-.6.4-1.23.34-1.89-.06-.65-.27-1.26-.64-1.82-.44-.67-.99-1.15-1.61-1.43-.63-.28-1.28-.38-1.95-.3-.66.08-1.29.31-1.87.69-.6.4-1.05.91-1.33,1.51-.28.6-.4,1.23-.34,1.89.06.65.27,1.26.64,1.82.44.67.99,1.15,1.61,1.43.49.22.99.33,1.51.33.15,0,.3,0,.45-.03.67-.08,1.29-.31,1.87-.69.6-.4,1.05-.91,1.33-1.51Zm-6.36-1.23c.04-.48.23-.94.55-1.38.33-.45.78-.87,1.32-1.23.58-.38,1.13-.57,1.65-.57.09,0,.17,0,.26.02.59.07,1.07.41,1.48,1.03.29.44.42.9.38,1.37-.04.47-.22.94-.54,1.38-.32.45-.76.86-1.31,1.22-.68.45-1.33.64-1.92.57-.59-.07-1.08-.41-1.49-1.03-.3-.45-.42-.9-.38-1.37Z"></path><path class="cls-1" d="m23.69,108.58c0,.07-.01.16-.06.25-.05.07-.08.16-.09.26-.02.13.02.25.1.34.05.06.12.09.2.09.1,0,.19-.04.3-.14.21-.23.38-.4.5-.51.11-.1.25-.22.43-.36.09-.06.14-.16.15-.28,0-.11-.03-.19-.08-.25-.07-.08-.17-.09-.26-.09-.09,0-.16,0-.22.02-.1.03-.2.04-.3.02-.1-.02-.18-.07-.26-.15l-.33-.33c-.2-.19-.36-.35-.48-.48,0,0,.02-.02.03-.03.12-.12.36-.36.73-.7.39-.37.65-.61.78-.72.15-.13.24-.17.27-.18,0,0,.04.01.09.07l.93.99c.17.18.25.37.23.57,0,.08-.04.22-.2.47-.03.06-.04.13-.04.2,0,.09.03.17.09.23.06.06.24.19.52-.08.1-.09.23-.22.4-.4.18-.18.3-.31.37-.4.04-.05.16-.23-.07-.48-.03-.04-.1-.1-.31-.27-.2-.15-.37-.3-.49-.43l-1.53-1.64c-.25-.28-.46-.52-.64-.72-.09-.09-.17-.16-.24-.19-.13-.06-.25-.05-.35.04-.15.15-.14.37.06.67.11.16.14.3.11.42-.03.1-.13.27-.41.54l-3.31,3.11c-.15.14-.28.21-.39.22-.07,0-.21-.03-.44-.2-.12-.09-.21-.14-.29-.17-.13-.05-.26-.03-.35.06h0c-.11.1-.17.28.12.6.14.15.32.32.52.49.04.04.11.11.21.2.09.08.17.16.25.25.1.11.18.21.25.31.11.16.25.34.41.51.16.17.3.23.4.23.08,0,.14-.03.19-.08.09-.09.12-.21.08-.35-.02-.08-.07-.18-.15-.3-.11-.17-.16-.32-.14-.43.02-.12.1-.26.24-.4.33-.34.82-.82,1.47-1.42.06-.05.04-.04.1,0,.11.1.27.26.48.48l.36.4s.06.1.07.17Z"></path><path class="cls-1" d="m25.96,114.36c-.16-.2-.25-.37-.27-.51-.02-.12.03-.25.15-.38l3.2-3.65c.12-.14.24-.21.34-.22.08,0,.23.02.49.18.3.18.53.19.67.03.1-.11.14-.3-.18-.58-.16-.14-.33-.28-.51-.42l-.39-.33-.42-.38c-.19-.18-.36-.34-.51-.48-.1-.09-.18-.14-.26-.17-.13-.05-.26-.02-.34.07-.14.16-.1.38.12.66.19.24.22.37.22.43,0,.06-.03.18-.19.36l-3.2,3.65c-.12.14-.25.22-.36.2-.14,0-.32-.07-.54-.2-.13-.08-.22-.12-.31-.14-.14-.04-.26,0-.35.09-.05.06-.07.13-.07.2,0,.12.08.23.24.38.21.18.4.34.57.46.2.16.37.29.5.41.11.1.25.22.4.38.13.15.31.31.51.49.1.09.18.14.26.17.04.02.09.02.13.02.08,0,.16-.03.21-.1.08-.1.1-.23.05-.36-.03-.08-.09-.17-.18-.28Z"></path><path class="cls-1" d="m34.96,117.73c.07-.11.08-.24.02-.36-.04-.08-.1-.15-.16-.19-.12-.08-.26-.16-.43-.26-.16-.09-.29-.17-.39-.24-.17-.11-.36-.25-.58-.41-.21-.16-.39-.28-.52-.38-.06-.04-.15-.06-.26-.06-.18,0-.27.1-.31.15-.04.06-.09.18-.02.34.04.1.09.17.16.21.11.07.24.2.4.36.17.19.2.29.2.33,0,0-.01.05-.1.18l-.18.25c-.05.06-.11.15-.19.26-.08.12-.17.22-.28.29-.11.07-.21.12-.32.14-.11.02-.27.01-.45-.03-.19-.04-.43-.16-.7-.34-.37-.25-.66-.59-.85-1.01-.2-.42-.27-.9-.22-1.41.05-.52.25-1.04.59-1.55.3-.44.67-.8,1.12-1.07.44-.26.91-.4,1.39-.41.48,0,.92.13,1.33.4.34.23.6.47.76.72.2.3.24.46.25.56.02.19.01.39-.03.58-.03.12-.05.21-.05.3,0,.13.06.24.17.31.09.06.2.07.31.03.09-.03.17-.09.23-.18.12-.17.3-.51.56-1.04.02-.06.04-.1.04-.15,0-.07-.02-.13-.06-.19-.06-.1-.2-.29-.74-.79-.4-.37-.7-.62-.92-.76-.61-.41-1.29-.65-2.01-.71-.73-.06-1.42.06-2.07.35-.65.29-1.19.75-1.59,1.36-.38.57-.58,1.19-.59,1.86-.01.67.14,1.31.46,1.91.32.6.77,1.1,1.35,1.49.38.26.77.44,1.15.55.37.11.75.19,1.16.25.19.02.24.03.24.03.05.02.11.04.17.04.11,0,.23-.05.33-.19.06-.09.05-.18.03-.26,0-.03-.01-.06-.01-.06h0s0-.09,0-.09l.16-.24c.15-.22.31-.43.47-.62.09-.11.16-.14.21-.16.04-.01.11-.02.23.02.06.03.13.03.24.04.17,0,.26-.08.31-.14Z"></path><path class="cls-1" d="m41.13,121.59c-.11-.05-.23-.03-.36.07-.08.06-.15.11-.2.17-.15.13-.28.23-.37.28-.09.05-.21.1-.38.15-.08.03-.19.03-.32.03-.14,0-.28-.04-.42-.1l-1.22-.54c-.36-.16-.43-.27-.45-.3-.03-.08-.02-.21.05-.37l2.03-4.64c.05-.12.12-.14.18-.14.15,0,.39.03.7.1.34.08.56.02.64-.17.06-.13.05-.33-.34-.5-.19-.08-.41-.17-.66-.27l-.59-.25-.48-.22c-.21-.11-.41-.2-.61-.29-.39-.17-.54-.05-.6.09-.09.19.02.39.31.59.19.13.28.2.31.24.03.03.04.06.04.1,0,.03-.01.12-.09.29l-2,4.57c-.07.15-.16.24-.27.27-.14.04-.35.03-.61-.03-.35-.07-.47.09-.51.19-.02.05-.06.18.07.33.06.07.14.13.27.18.09.03.29.11.59.22.3.11.55.22.75.3.29.13.76.34,1.42.65.58.27,1.23.57,1.93.88.04.02.09.03.14.03.11,0,.24-.06.33-.22.1-.17.2-.33.3-.47.11-.15.27-.36.5-.65l.05-.08c.03-.08.05-.16.04-.23-.01-.12-.08-.22-.18-.26Z"></path><path class="cls-1" d="m47.12,118.14c.03-.12-.01-.24-.13-.32-.07-.05-.16-.09-.28-.12-.2-.06-.42-.11-.64-.16l-.49-.13-.54-.16c-.25-.08-.47-.15-.67-.21-.13-.04-.22-.05-.31-.04-.14.01-.24.09-.28.21-.06.2.07.39.39.54.27.13.36.24.39.29.03.06.05.17-.01.41l-1.31,4.68c-.05.18-.13.29-.23.34-.13.06-.32.08-.57.05-.14-.01-.25-.01-.34,0-.14.03-.24.11-.27.24-.02.07-.01.15.03.21.06.1.18.18.38.23.26.07.5.13.71.17.25.05.46.11.63.15.14.04.32.1.52.17.19.08.41.15.68.22.1.03.19.04.26.04.21,0,.29-.11.32-.21.03-.12,0-.25-.11-.34-.06-.06-.16-.12-.29-.18-.23-.11-.39-.23-.47-.35-.07-.1-.08-.24-.03-.41l1.31-4.68c.05-.18.12-.29.21-.34.07-.04.22-.08.52-.05.35.03.56-.06.61-.26Z"></path><path class="cls-1" d="m52.94,118.96c0-.07-.02-.28-.36-.33l-2.36-.27-.9-.13c-.39-.06-.71-.11-.99-.15-.42-.05-.53.11-.55.25-.03.21.13.37.46.48.27.09.38.18.43.24.06.08.07.22.05.41l-.61,4.8c-.02.19-.08.32-.17.39-.11.08-.29.12-.52.14-.15,0-.25.02-.33.05-.13.05-.22.15-.24.27h0c-.02.15.05.33.47.38.09.01.32.03.7.06.16,0,.34.01.53.04.48.06.96.13,1.45.22,1.11.16,1.73.25,1.88.27.01,0,.03,0,.04,0,.07,0,.13-.02.18-.06.04-.03.08-.08.11-.14.02-.03.03-.05.04-.06.09-.14.19-.36.31-.66.16-.41.2-.55.2-.62.03-.21-.09-.37-.3-.39-.13-.02-.25.05-.36.2-.14.2-.27.36-.37.47-.09.09-.18.17-.26.21-.09.04-.21.06-.34.07-.14,0-.33,0-.55-.03l-.79-.1c-.19-.02-.32-.08-.39-.15-.06-.07-.08-.22-.05-.42l.26-2.05s0-.05,0-.06c.02,0,.07,0,.16,0l.99.13c.12.02.15.06.17.08.02.03.07.11.09.29.04.34.17.52.38.55.05,0,.3.02.35-.35l.08-.81.13-.75c.01-.1-.01-.2-.07-.28-.08-.1-.16-.13-.22-.14-.13-.02-.31.03-.43.33-.09.22-.16.29-.18.3-.01,0-.08.05-.29.02l-1.03-.12v-.04s.28-2.26.28-2.26c0,0,0-.04.07-.07.09-.05.13-.05.13-.05l1.4.18c.25.03.42.13.54.3,0,.01.04.07.07.23.03.17.04.27.05.3.02.08.04.14.07.17.05.06.12.1.21.11.13.02.21-.03.26-.06.05-.04.12-.12.13-.25.02-.18.03-.4.01-.67-.01-.27-.02-.43-.03-.47Z"></path><path class="cls-1" d="m63.96,119.41c-.38-.49-.92-.85-1.61-1.07-.67-.21-1.5-.24-2.44-.1-.09.01-.2.03-.32.06-.12.03-.26.05-.41.09-.43.1-.79.17-1.07.22-.27.04-.46.07-.57.08l-.61.08c-.13.02-.23.05-.31.1-.12.07-.17.19-.15.32.02.13.1.23.23.27.08.02.18.04.34.04.29,0,.42.06.47.11.08.06.13.19.16.38l.74,4.78c.03.2.02.35-.04.43-.04.06-.15.16-.42.25-.16.06-.26.1-.3.12-.12.06-.18.18-.16.33.01.08.06.15.12.2.07.05.16.07.27.07.05,0,.11,0,.17-.01.28-.04.5-.09.65-.13.19-.04.34-.07.46-.09.36-.06.94-.13,1.72-.21l.5-.06c.7-.11,1.33-.39,1.87-.83.54-.44.94-.99,1.2-1.65.26-.65.33-1.34.23-2.04-.1-.68-.35-1.27-.73-1.76Zm-4.33,4.94l-.73-4.74c-.02-.14,0-.25.04-.31.06-.08.17-.13.31-.17.18-.05.45-.1.82-.16.13-.02.26-.03.4-.03.33,0,.66.06.99.19.46.17.86.47,1.2.89.33.42.55.94.65,1.55.09.58.06,1.11-.1,1.59-.15.48-.41.87-.77,1.18-.36.31-.79.5-1.3.58-.46.07-.83.06-1.11-.02-.14-.04-.34-.15-.41-.56Z"></path><path class="cls-1" d="m69.95,122.8c-.08-.01-.19,0-.34.01-.25.04-.45.03-.58-.02-.11-.04-.2-.15-.25-.32l-1.54-4.61c-.06-.18-.06-.31-.02-.4.04-.07.14-.19.4-.33.31-.17.43-.36.36-.56-.02-.07-.07-.13-.14-.16-.11-.05-.24-.05-.45.02-.2.07-.41.14-.62.23l-1.01.34c-.25.07-.48.14-.67.2-.4.14-.43.33-.39.47.07.2.28.28.63.23.3-.04.44,0,.49.02.08.04.16.16.22.34l1.54,4.61c.06.17.06.31,0,.41-.07.12-.22.25-.44.37-.13.07-.22.13-.28.19-.1.1-.13.23-.09.35.02.07.07.13.14.16.05.02.1.04.16.04.08,0,.17-.02.29-.06.26-.09.49-.18.68-.26.24-.09.44-.17.6-.22.14-.05.32-.1.53-.15.2-.04.43-.11.68-.19.2-.07.32-.15.37-.25.03-.07.04-.14.02-.22-.04-.12-.14-.2-.28-.22Z"></path><path class="cls-1" d="m76.74,116.63c-.27-.15-.54-.26-.83-.3-.27-.04-.61-.07-1.01-.09-.41-.02-.73-.04-.96-.07-.22-.03-.42-.08-.6-.16-.16-.07-.27-.17-.35-.31-.18-.32-.22-.58-.14-.81.09-.24.27-.43.54-.59.21-.12.42-.15.64-.09.24.06.52.22.82.46.05.05.15.1.3.09.1,0,.19-.03.27-.08.23-.13.23-.33.16-.46-.08-.14-.18-.28-.3-.41-.11-.12-.26-.27-.44-.45-.06-.07-.14-.12-.23-.15-.09-.03-.18-.05-.27-.04-.44.06-.83.18-1.17.37-.68.38-1.11.85-1.28,1.41-.18.56-.11,1.12.2,1.67.16.29.38.51.65.66.26.14.53.23.8.28.26.04.59.07,1.02.09h.25c.36.02.64.04.83.07.17.03.33.09.47.19.14.1.27.26.39.47.17.3.21.58.13.85-.08.28-.26.49-.53.65-.25.14-.53.17-.84.1-.32-.07-.66-.29-1-.66-.12-.12-.29-.14-.45-.05-.09.05-.16.11-.2.19-.06.1-.05.22,0,.33l.13.21c.27.4.44.65.54.75.07.08.18.14.32.18h.02c.15.03.29.05.44.05.43,0,.85-.12,1.28-.35.65-.37,1.09-.85,1.29-1.44.21-.6.14-1.21-.2-1.82-.18-.32-.41-.57-.69-.73Z"></path><path class="cls-1" d="m85.5,113.35c-.12,0-.23.03-.37.1-.2.11-.39.16-.56.15-.12,0-.35-.07-.75-.32-1.9-1.24-3.59-2.37-5.04-3.37-.03-.02-.05-.03-.08-.06-.04-.03-.08-.06-.12-.09l-.08-.03s-.08,0-.12.01l-.14.06-.02.16v.03s.03.1.06.2c.02.05.02.09.01.11-.02.06-.05.12-.09.18l-.16.24.07.11c.09.15.17.33.24.54.34,1.08.62,2,.83,2.73.21.73.44,1.57.67,2.49.06.23.07.42.03.57-.04.16-.12.32-.23.48-.08.12-.3.42-.12.66.03.04.11.11.24.11.03,0,.06,0,.1-.01.09-.02.18-.07.28-.14.14-.11.29-.24.42-.37.06-.05.15-.12.26-.22.11-.09.2-.18.29-.25l.51-.39c.08-.05.17-.12.28-.2.17-.13.25-.24.27-.36,0-.07-.01-.15-.06-.21-.08-.1-.2-.14-.33-.12-.08.01-.18.05-.32.11-.14.06-.26.09-.39.08-.1,0-.18-.05-.23-.12,0-.01-.06-.1-.24-.57-.14-.35-.25-.64-.33-.87,0-.03-.01-.05-.02-.06l1.58-1.22s.07-.05.09-.06c.94.67,1.24.95,1.33,1.06.08.11.01.28-.21.52-.09.09-.15.19-.19.28-.07.18-.03.3.02.36.08.1.2.14.33.1.08-.02.17-.07.28-.15l.88-.7c.16-.12.41-.3.74-.52l.48-.34c.18-.14.26-.24.27-.36,0-.07-.01-.14-.05-.2-.05-.06-.14-.14-.32-.14Zm-6.18-1.67l1.93,1.33-1.22.95-.71-2.27Z"></path><path class="cls-1" d="m91.65,106.95c-.2-.15-.41-.32-.61-.51-2.26-2.1-3.45-3.21-3.62-3.39-.08-.09-.13-.17-.13-.23,0-.03.01-.14.18-.41.19-.3.21-.52.05-.66-.09-.08-.22-.1-.35-.04-.07.04-.15.1-.24.19-.16.18-.32.36-.46.53l-.77.85c-.08.09-.15.18-.21.28-.13.22-.07.34,0,.41.19.18.47.01.75-.2.07-.06.18-.09.33-.11.13-.01.22,0,.27.04,1.64,1.52,2.69,2.51,3.12,2.93,0,0-.02,0-.03,0-.75-.04-2.01-.12-3.78-.22-2.18-.13-2.76-.18-2.86-.19-.11-.02-.19-.02-.25,0-.09.01-.16.06-.23.14-.17.19-.38.4-.62.64l-.54.54c-.06.06-.1.13-.13.21-.05.13-.02.27.08.36.07.06.19.12.39.07.1-.03.19-.07.26-.11.3-.17.56-.26.77-.27.19,0,.39.09.61.29.59.55,1.17,1.11,1.72,1.68.55.56.98,1.02,1.28,1.37.35.4.28.67.19.83-.07.13-.11.23-.13.31-.05.18.03.29.08.33.05.04.11.08.19.08.1,0,.23-.06.4-.24.08-.09.22-.25.4-.48.08-.11.16-.2.23-.27.08-.08.17-.17.26-.26.12-.1.27-.24.46-.45.09-.1.15-.18.18-.25.05-.13.03-.26-.06-.34-.09-.09-.22-.11-.35-.06-.08.03-.17.09-.29.17-.3.22-.55.2-.84-.07-.66-.61-1.61-1.52-2.83-2.7.2.01.71.03,1.51.07.55.03,1.43.07,2.63.13,1.56.07,1.88.1,1.94.1.28.03.54.02.79-.04.27-.07.42-.14.51-.24.14-.15.2-.4-.06-.64l-.18-.15Z"></path><path class="cls-1" d="m98.49,96.95c-.1-.14-.24-.31-.4-.49-.23-.25-.33-.33-.39-.37-.12-.08-.22-.07-.29-.06-.09.02-.17.08-.22.16-.04.06-.06.14-.06.22,0,.09.02.17.06.24.23.42.35.82.35,1.19,0,.37-.11.75-.35,1.13-.28.45-.67.76-1.15.94-.49.19-1.03.24-1.59.17-.57-.07-1.09-.27-1.57-.56-.42-.26-.76-.62-1-1.05-.25-.43-.37-.89-.38-1.38,0-.48.12-.94.39-1.36.15-.23.31-.44.49-.61.17-.17.35-.29.51-.37.17-.07.33-.1.51-.08.19.01.43.07.72.16.19.06.36,0,.45-.16.05-.08.07-.18.06-.27-.02-.12-.09-.22-.17-.25-.23-.14-.6-.33-1.12-.59-.13-.06-.24-.08-.36-.06-.11.01-.23.07-.34.17-.33.32-.57.56-.73.74-.16.18-.35.44-.55.76-.4.64-.64,1.34-.71,2.08-.07.74.04,1.45.32,2.09.28.65.74,1.18,1.34,1.56.61.39,1.26.58,1.94.58.02,0,.04,0,.07,0,.69-.01,1.35-.2,1.95-.56.6-.36,1.09-.84,1.47-1.43.2-.32.38-.66.54-1.01.16-.35.26-.67.31-.94.04-.16.05-.25.03-.33,0-.04-.03-.11-.13-.29Z"></path><path class="cls-1" d="m103,88.53c-.07-.03-.19-.06-.35.02-.1.05-.19.13-.28.26-.13.18-.28.31-.44.39-.11.05-.34.1-.81.05-2.26-.26-4.28-.51-6.02-.75-.03,0-.06,0-.09-.01-.05-.01-.1-.02-.15-.02h-.04s-.04.01-.04.01c-.04.01-.07.04-.1.07l-.09.12.04.12.03.06s.07.08.14.15c.04.04.06.07.06.1.01.06.01.13,0,.19l-.04.29.11.07c.15.09.31.22.46.37.79.81,1.46,1.51,1.97,2.06.52.56,1.1,1.21,1.72,1.92.16.18.25.35.29.5.04.16.04.34.01.53-.02.14-.08.51.18.64.02.01.07.03.12.03.06,0,.14-.02.22-.09h0c.07-.06.13-.14.18-.25.08-.16.15-.34.21-.52.03-.07.08-.17.13-.32.05-.13.1-.25.15-.35l.29-.58c.05-.08.1-.18.16-.3.18-.38.06-.54-.07-.6-.11-.06-.24-.04-.35.04-.06.04-.14.12-.24.24-.09.12-.2.2-.31.25-.09.04-.18.04-.26,0-.02,0-.11-.07-.47-.39-.28-.25-.51-.46-.68-.63-.02-.02-.03-.03-.04-.04l.86-1.8s.04-.07.05-.09c1.14.18,1.54.29,1.67.35.15.07.11.35.05.56-.04.12-.05.23-.04.34.02.19.11.28.18.31.11.05.33.08.52-.32l.48-1.02c.09-.18.23-.45.43-.8l.27-.52c.15-.31.13-.51-.06-.6Zm-4.96,3.02l-1.66-1.71,2.32.32-.66,1.39Zm1.74,3.9h0s0,0,0,0Z"></path><path class="cls-1" d="m106.43,78.66c-.12-.04-.25,0-.35.09-.06.06-.12.15-.19.28-.12.21-.23.35-.35.41-.1.06-.23.06-.39.01-.32-.09-.76-.21-1.34-.36-.71-.19-1.34-.36-1.87-.51-.52-.15-1.09-.33-1.68-.53-.03-.01-.06-.03-.08-.06-.03-.04-.04-.08-.05-.12l-.02-.4c0-.11,0-.2,0-.28,0-.14-.02-.23-.04-.29-.03-.11-.11-.19-.22-.23-.07-.02-.15-.02-.22.01-.12.06-.18.2-.21.29-.04.12-.08.27-.12.46-.12.48-.17.67-.19.73l-.12.37c-.02.07-.05.24.19.39.19.11.42.25.66.41l3.38,3.3-4.49.23c-.1,0-.29,0-.55-.02l-.3-.02c-.2,0-.36.1-.42.28-.03.09-.13.33-.29.74-.17.42-.27.67-.3.76-.04.13-.07.23-.08.31-.02.19.09.29.2.33.1.03.21.02.31-.03.08-.05.15-.12.21-.21.1-.17.18-.3.25-.39.05-.07.13-.14.25-.21.05-.03.07-.03.07-.03.04,0,.09,0,.16.02.07.02.17.05.32.1.79.27,2.2.9,4.17,1.87.48.24.5.51.47.69-.02.14-.03.25-.01.34.02.14.1.24.22.28.03,0,.06.01.09.01.04,0,.09,0,.13-.03.11-.05.19-.17.25-.37.04-.12.1-.32.17-.6.03-.13.06-.25.09-.34.04-.11.08-.23.14-.34.07-.14.15-.34.24-.6.14-.4,0-.54-.14-.59-.12-.04-.25,0-.35.09-.06.06-.12.15-.19.27-.09.15-.2.25-.34.3-.15.05-.29.05-.44,0-.62-.21-1.17-.42-1.63-.63-.39-.17-.91-.42-1.56-.74,1.89-.14,3.57-.21,5-.21.13-.01.24-.09.28-.2.05-.14,0-.26-.09-.34l-3.67-3.63c.14.04.26.07.35.09.11.03.46.13,1.06.3.59.17,1.24.38,1.93.61.27.09.36.18.39.22.06.08.05.22.03.31-.07.35,0,.56.2.63.14.05.33.02.47-.39.09-.27.15-.48.18-.64.05-.19.09-.34.13-.45.05-.14.11-.31.19-.51.09-.18.17-.41.26-.66.07-.2.08-.34.02-.45-.03-.07-.09-.12-.16-.14Z"></path><path class="cls-1" d="m107.5,73.84c-.12-.03-.25.02-.34.12-.05.06-.11.16-.17.29-.1.23-.21.39-.33.48-.1.07-.23.09-.41.04l-4.73-1.13c-.18-.04-.3-.11-.35-.2-.04-.07-.09-.22-.07-.52.02-.35-.08-.55-.28-.6-.14-.03-.33.01-.43.43-.05.21-.09.42-.13.65l-.25,1.04c-.08.25-.14.48-.18.67-.1.41.05.54.19.58.21.05.38-.09.52-.41.12-.28.23-.37.28-.4.06-.03.17-.06.41,0l4.73,1.13c.18.04.29.12.35.22.07.13.09.32.08.57,0,.14,0,.25.02.34.03.14.12.23.24.26h0s.05,0,.07,0c.13,0,.28-.09.36-.43.06-.26.11-.51.14-.72.05-.25.09-.46.13-.63.03-.14.08-.32.15-.53.07-.19.13-.42.2-.68.1-.41-.05-.54-.19-.58Z"></path><path class="cls-1" d="m108.71,66.92c-.18-.05-.36-.11-.53-.18-.17-.07-.42-.18-.75-.33l-.09-.03c-.08-.01-.16,0-.24.02-.11.04-.19.13-.21.24-.02.12.03.23.15.33.07.06.15.12.21.15.16.12.29.21.36.29.07.07.15.18.24.33.04.07.08.17.1.3.03.13.03.28,0,.43l-.22,1.31c-.07.39-.16.48-.18.5-.07.05-.2.06-.37.04l-4.99-.85c-.13-.02-.17-.08-.18-.14-.04-.14-.06-.38-.07-.7,0-.35-.11-.55-.32-.58-.14-.02-.33.03-.4.45-.03.2-.07.44-.1.71l-.1.63-.1.52c-.05.23-.1.45-.14.67-.04.21-.02.35.05.45.04.06.11.1.18.11.21.03.38-.11.5-.44.08-.22.13-.32.16-.36.02-.03.05-.05.08-.06.03,0,.12-.02.3.01l4.92.84c.16.03.27.09.33.2.07.13.11.33.12.6.02.35.2.43.31.45.01,0,.03,0,.05,0,.07,0,.17-.03.26-.15.05-.07.09-.17.11-.31,0-.1.03-.31.07-.63.04-.32.08-.58.11-.8.05-.31.15-.82.28-1.54.13-.63.26-1.34.39-2.09.01-.07.03-.31-.3-.41Z"></path><path class="cls-1" d="m109.42,59.66c-.19-.04-.37-.08-.54-.14-.18-.05-.43-.14-.77-.27l-.09-.02c-.08,0-.16,0-.24.04-.11.05-.18.14-.19.26,0,.08.02.2.18.32.08.06.15.1.22.14.17.1.3.19.38.26.08.06.17.17.27.31.05.06.09.16.13.29.04.13.05.27.03.43l-.12,1.33c-.04.39-.12.5-.14.52-.06.06-.19.08-.36.06l-5.04-.45c-.13-.01-.17-.07-.19-.13-.04-.1-.09-.3-.13-.69-.03-.35-.15-.54-.37-.56-.12,0-.23.06-.3.18-.04.07-.06.17-.07.3-.02.2-.03.44-.04.71l-.05.64-.06.53c-.04.23-.06.46-.08.67-.04.42.13.53.27.54.21.02.37-.14.46-.48.06-.23.1-.33.13-.37.02-.03.04-.05.08-.07.03-.01.12-.03.3,0l4.97.45c.17.01.28.07.34.17.08.12.14.32.17.59.05.35.24.42.34.43,0,0,.01,0,.02,0,.06,0,.18-.02.27-.17.05-.08.07-.18.08-.31,0-.1.01-.31.02-.63.01-.32.03-.59.05-.81.03-.31.08-.83.16-1.55.08-.64.15-1.35.22-2.11.01-.15-.07-.33-.33-.38Z"></path><path class="cls-1" d="m104.28,57.57c.6.31,1.25.47,1.93.48.02,0,.04,0,.06,0,.7,0,1.34-.17,1.89-.49.57-.34,1.02-.8,1.34-1.37.32-.57.49-1.2.49-1.86,0-.8-.17-1.51-.53-2.09-.36-.59-.85-1.04-1.45-1.35-.6-.31-1.25-.47-1.93-.48-.72-.02-1.38.16-1.95.49-.57.34-1.02.8-1.34,1.37-.32.57-.49,1.2-.49,1.86,0,.8.17,1.51.53,2.09.36.59.85,1.04,1.45,1.35Zm4.43-2.08c-.3.37-.72.65-1.23.84-.53.19-1.13.28-1.78.27-.81,0-1.44-.21-1.89-.61-.44-.39-.65-.94-.65-1.68,0-.54.15-.98.45-1.35.3-.37.71-.65,1.22-.84.5-.18,1.07-.28,1.69-.28.03,0,.05,0,.08,0,.81,0,1.46.22,1.91.61.45.39.66.94.65,1.69,0,.53-.16.98-.46,1.35Z"></path></g><path class="cls-2" d="m57.65,16.82c-.25-.17-1.05-.96-1.63-1.5-.65-.68-.62-1.01.34-2.36.37-.52.57-.84.68-1.08.25-.54.26-1.29-.16-1.75-.21-.24-.52-.46-.86-.68-.7-.45-.39-.95-.39-.95,0,0,.28-.56.76-1.32.48-.76-.14-1.35-1.43-2.16-1.29-.81-1.46-1.68-1.43-1.49.03.2-.17.67-.31.95-.14.28-.08.56.53,1.26.62.7.39,1.46-.7,2.02-1.09.56-.4,2.08-.12,2.47.28.39.57.88.24,1.54-.33.67-1.46,1.91-1.46,1.91l-3.88-9.14.32,11.97-5.93-9.86,2.24,11.85-7.83-8.84,4.19,11.4-9.41-7.28,6.39,10.58-10.92-5.56,9.12,10.15c-.67.13-1.34.29-2.1.51-.92.22-1.36-.1-1.75-1.32-.19-.59-.27-.66-.35-.9-.32-.89-.81-.92-1.42-.8-.91.23-1.07.2-1.34.2-1.39,0-1.44-.1-1.48-.5-.13-1.4-1.79-1.79-2.67-.76-.79.93-2.27.48-2.08.55.54.22.55,1.06,1.74.89.92-.07,1.61.16,1.54,1.39-.07,1.23.9,1.66,2.42,1.62,1.51-.04,1.48.3,1.66,1.01.18.71,0,1.95,0,1.95l-9.84-1.66,9.26,5.94-11.37-.94,10.85,5.54-12.05-.86,11.45,5.38-12.27.03,10.82,4.34-12.01.9,12.45,4.11c-.18.25-.41.74-.97,1.29-.45.43-.73.46-1.92-.49-.5-.39-.82-.59-1.05-.71-.53-.27-1.28-.3-1.76.1-.25.21-.48.5-.71.84-.47.69-1.39.44-1.39.44,0,0-.3-.15-1.04-.65-.74-.5-1.63,0-2.48,1.26-.85,1.26-1.7,1.36-1.51,1.33.2-.02.67.19.94.34.28.15.68.15,1.41-.44.72-.59,1.29-.55,1.87.71.58,1.26,2.09.59,2.49.33.4-.27,1.07-1.02,1.73-.67.66.35,1.86,1.52,1.86,1.52l-9.51,3.06,11.65.79-10.5,4.76,12.09-.37-10.72,5.81,11.53-1.53-10.5,6.4,12.51-2.3-11.02,7.41,13.18-3.02c-.22.65-.27.94-.53,1.71-.26.91-1.31.86-2.34.87-.61,0-.42-.01-.68-.02-.95-.04-1.63.2-1.82.79-.07.6.12,1.15.08,1.42-.12.78-.72.92-1.33.87-1.4-.12-2.35-.3-1.92,1.53.28,1.18-.89,2.59-.74,2.46.46-.36,1.41.16,1.69-1.02.39-.83.59-1.3,2.05-.93,1.46.38,1.85.39,2.64-1.11.41-1.48,1.87-1.12,2.73-1.05.86.07,1.35.26,1.35.26l-6.97,8.71,10.28-5.73-5.75,10.7,8.26-6.39-3.31,10.4,7.21-8.74-1.82,11.53,5.78-9.66.05,12.05,4.31-11.99c.28.13,1.03,1,1.6,1.54.65.68.62,1.01-.34,2.36-.37.52-.57.84-.68,1.08-.25.54-.26,1.29.16,1.75.21.24.52.46.86.68.7.45.39.95.39.95,0,0-.28.56-.76,1.32s.14,1.35,1.43,2.16c1.29.81,1.46,1.68,1.43,1.49-.03-.2.17-.67.31-.95.14-.28.08-.56-.53-1.26-.62-.7-.39-1.46.7-2.02,1.09-.56.4-2.08.12-2.47-.28-.39-.57-1.16-.24-1.83.33-.67,1.46-1.91,1.46-1.91l3.59,9.31.14-11.91,5.76,9.92-2.01-11.96,7.66,8.56-4.08-11.01,9.3,7-6.39-10.58,10.98,5.56-9.07-10.26c.67-.13,1.34-.29,2.1-.51.92-.22,1.36.1,1.75,1.32.19.59.27.66.35.9.32.89.81.92,1.42.8.91-.23,1.07-.2,1.34-.2,1.39,0,1.44.1,1.48.5.13,1.4,1.79,1.79,2.67.76.79-.93,2.27-.48,2.08-.55-.54-.22-.55-1.06-1.74-.89-.92.07-1.61-.16-1.54-1.39.07-1.23-.9-1.66-2.42-1.62-1.51.04-1.48-.3-1.66-1.01-.18-.71-.17-1.95-.17-1.95l9.84,2.06-9.26-6.28,11.37,1.28-10.85-5.88,11.99.8-11.4-5.33,12.27.31-10.71-4.79,11.27-.78-12.28-4.11c.18-.25.41-.74.97-1.29.45-.43.73-.46,1.92.49.5.39.82.59,1.05.71.53.27,1.28.3,1.76-.1.25-.21.48-.5.71-.84.47-.69,1.39-.44,1.39-.44,0,0,.3.15,1.04.65.74.5,1.63,0,2.48-1.26.85-1.26,1.7-1.36,1.51-1.33-.2.02-.67-.19-.94-.34-.28-.15-.68-.15-1.41.44-.72.59-1.29.55-1.87-.71-.58-1.26-2.09-.59-2.49-.33-.4.27-1.07,1.02-1.73.67-.66-.35-1.35-1.63-1.35-1.63l9.45-2.6-11.76-.96,10.61-4.59-12.09.37,10.72-5.81-11.53,1.14,10.5-6.01-12.51,1.78,11.02-6.9-13.18,2.74c.22-.65.27-.66.53-1.43.26-.91,1.31-.86,2.34-.87.61,0,.42.01.68.02.95.04,1.63-.2,1.82-.79.07-.6-.12-1.15-.08-1.42.12-.78.72-.92,1.33-.87,1.4.12,2.35.3,1.92-1.53-.28-1.18.89-2.59.74-2.46-.46.36-1.41-.16-1.69,1.02-.39.83-.59,1.31-2.05.93-1.46-.38-1.85-.39-2.64,1.11-.41,1.48-1.87,1.12-2.73,1.05-.86-.07-1.35-.26-1.35-.26l6.97-8.71-10.28,5.73,5.75-10.7-8.08,6.96,3.14-10.97-7.21,8.74,1.82-11.53-5.78,9.66-.05-12.05-4.28,11.95Z"></path><path class="cls-3" d="m49.61,26.7h10.77v12.97h12.4v10.77h-12.4v37.85h-10.77v-37.85h-12.4v-10.77h12.4v-12.97h0Zm5.39-7.48c-13.87,0-25.11,17.14-25.11,38.27s11.24,38.27,25.11,38.27,25.11-17.14,25.11-38.27-11.24-38.27-25.11-38.27h0Zm0-2.08c-14.62,0-26.47,18.07-26.47,40.36s11.85,40.36,26.47,40.36,26.47-18.07,26.47-40.36-11.85-40.36-26.47-40.36h0Zm0-14.41C31.98,2.73,13.31,27.25,13.31,57.5s18.66,54.76,41.69,54.76,41.69-24.52,41.69-54.76S78.02,2.73,55,2.73h0Zm0-2.73C30.83,0,11.23,25.74,11.23,57.5s19.59,57.5,43.77,57.5,43.77-25.74,43.77-57.5S79.17,0,55,0Z"></path></g></g><g id="Livello_3" data-name="Livello 3"><g><path class="cls-4" d="m128.17,38.52c-1.6-.86-2.88-2.06-3.84-3.61-.96-1.55-1.44-3.32-1.44-5.3s.42-3.68,1.26-5.33c.84-1.65,2.07-2.98,3.69-3.98,1.62-1,3.55-1.5,5.78-1.5,1.86,0,3.59.43,5.19,1.29,1.6.86,2.88,2.06,3.84,3.61s1.44,3.32,1.44,5.3-.42,3.68-1.26,5.33c-.84,1.65-2.07,2.98-3.69,3.98s-3.56,1.5-5.81,1.5c-1.84,0-3.56-.43-5.16-1.29Zm10.49-2.15c1.12-1.43,1.67-3.37,1.67-5.83,0-1.9-.27-3.64-.82-5.21-.55-1.57-1.36-2.83-2.45-3.77-1.08-.94-2.41-1.41-3.98-1.41-2.09,0-3.68.71-4.79,2.12-1.11,1.42-1.66,3.33-1.66,5.75,0,1.9.27,3.65.81,5.24.54,1.59,1.35,2.86,2.43,3.81,1.08.95,2.4,1.43,3.95,1.43,2.11,0,3.72-.71,4.84-2.14Z"></path><path class="cls-4" d="m146.59,38.73c-.12-.23-.22-.62-.29-1.19-.07-.57-.11-1.12-.11-1.66,0-.21.16-.31.46-.31.1,0,.2.03.29.08.09.05.16.12.2.2.29.95.71,1.68,1.27,2.19.56.51,1.18.76,1.86.76.58,0,1.05-.19,1.43-.57.37-.38.56-.84.56-1.38s-.18-1-.54-1.38c-.36-.38-.98-.83-1.84-1.35-1.07-.62-1.87-1.23-2.39-1.84-.52-.61-.78-1.34-.78-2.19,0-1.1.4-1.99,1.21-2.7.81-.7,1.89-1.05,3.26-1.05.6,0,1.14.06,1.63.19.49.12.84.27,1.07.43.17.23.3.59.42,1.1.11.51.17,1.03.17,1.57,0,.08-.04.15-.12.19-.08.04-.18.06-.28.06-.15,0-.28-.04-.42-.11-.13-.07-.21-.15-.23-.23-.58-1.47-1.41-2.2-2.48-2.2-.52,0-.97.16-1.35.48-.38.32-.57.74-.57,1.26,0,.46.17.86.5,1.22.33.36.88.76,1.64,1.19,1.32.74,2.26,1.42,2.81,2.03.55.61.82,1.39.82,2.34,0,1.22-.43,2.19-1.3,2.9-.87.71-2.03,1.07-3.47,1.07s-2.52-.36-3.41-1.08Z"></path><path class="cls-4" d="m156.48,47.87c-.14-.06-.22-.15-.22-.25,0-.23.24-.42.71-.59.45-.15.78-.29.98-.43.2-.15.29-.39.29-.74v-15.41c0-.37-.12-.79-.37-1.26-.25-.46-.58-.74-.99-.82-.21-.06-.31-.22-.31-.47s.09-.39.28-.43c1.16-.27,2.45-.71,3.88-1.33.04-.02.08-.04.11-.06.03-.02.08-.03.14-.03s.11.04.15.11c.04.07.06.14.06.2l-.06.77c-.06.37-.09.73-.09,1.08,0,.17.01.26.03.28.23-.23.62-.51,1.18-.84s1.18-.62,1.88-.87c.69-.25,1.34-.37,1.94-.37,1.03,0,1.94.28,2.71.85.77.57,1.37,1.31,1.8,2.22.42.91.64,1.86.64,2.85,0,1.24-.32,2.44-.96,3.6-.64,1.16-1.5,2.1-2.57,2.82s-2.25,1.08-3.53,1.08c-.43,0-.95-.09-1.55-.26-.6-.18-1.05-.38-1.36-.6-.04,0-.07.16-.09.48-.02.32-.03.57-.03.76v5.55c0,.35.12.6.37.76s.52.28.81.37c.29.09.48.15.56.17.23.08.4.16.53.23.12.07.19.18.19.33,0,.1-.07.19-.2.25-.13.06-.28.09-.45.09-.6,0-1.16-.03-1.67-.09-.66-.04-1.17-.06-1.52-.06-.37,0-.81.02-1.3.06-.43.06-.93.09-1.49.09-.15,0-.29-.03-.43-.09Zm9.44-9.69c.57-.36,1.06-.94,1.49-1.74.42-.79.64-1.81.64-3.05,0-2.05-.4-3.45-1.21-4.2-.81-.75-1.66-1.13-2.57-1.13-.43,0-.89.09-1.38.28-.49.19-.89.4-1.22.65-.33.25-.5.45-.5.62l-.03,3.16c-.02.5-.03,1.05-.03,1.67,0,.7.16,1.39.48,2.05.32.66.74,1.2,1.26,1.61.52.41,1.04.62,1.58.62.43,0,.94-.18,1.5-.54Z"></path><path class="cls-4" d="m175.74,38.97c-.87-.58-1.55-1.38-2.03-2.4-.49-1.02-.73-2.2-.73-3.52,0-1.2.28-2.31.85-3.33.57-1.02,1.33-1.84,2.29-2.45.96-.61,2-.91,3.12-.91,1.28,0,2.34.38,3.18,1.15.84.76,1.26,1.73,1.26,2.88,0,.35-.08.61-.23.78-.15.17-.4.25-.73.25h-6.42c-.29,0-.49.08-.6.25-.11.17-.17.47-.17.9,0,.91.2,1.75.59,2.51.39.77.94,1.37,1.63,1.81.69.44,1.45.67,2.28.67,1.16,0,2.19-.45,3.1-1.36.1-.17.22-.25.34-.25.19,0,.28.11.28.34,0,.31-.15.7-.43,1.18-.43.7-1.06,1.28-1.88,1.72-.82.44-1.72.67-2.71.67-1.12,0-2.11-.29-2.98-.87Zm3.07-8.62c.93,0,1.64-.05,2.14-.15.19-.06.28-.32.28-.78,0-.58-.24-1.07-.71-1.47-.48-.4-1.04-.6-1.71-.6-.43,0-.88.13-1.33.4-.46.27-.82.61-1.1,1.02-.28.41-.42.82-.42,1.21,0,.25.13.37.4.37h2.45Z"></path><path class="cls-4" d="m195.17,39.81c-.1-.1-.16-.18-.16-.22,0-.12.02-.35.06-.68.06-.41.09-.79.09-1.12v-.19c-.37.6-.92,1.12-1.64,1.55-.72.43-1.53.65-2.42.65-1.14,0-2.14-.3-3.02-.9-.88-.6-1.57-1.39-2.06-2.37-.5-.98-.74-2.02-.74-3.12,0-1.28.29-2.46.88-3.53.59-1.07,1.43-1.93,2.51-2.57,1.08-.64,2.33-.96,3.74-.96.68,0,1.38.11,2.11.34l.4.09c.06,0,.11-.06.15-.17.04-.11.06-.27.06-.48v-4.12c0-.76-.11-1.31-.34-1.63-.23-.32-.6-.53-1.12-.64-.08-.02-.15-.07-.22-.15s-.09-.18-.09-.28c0-.21.09-.34.28-.4,1.24-.29,2.48-.69,3.72-1.21.25-.1.42-.16.53-.16.17,0,.25.08.25.25,0,.06-.03.38-.09.95s-.09,1.41-.09,2.53l-.06,14.6c0,.72.05,1.23.15,1.53.1.3.28.45.53.45l1.3-.09h.15c.12,0,.21.02.26.06.05.04.08.12.08.25,0,.14-.05.28-.16.42s-.21.2-.31.2c-1.26.15-2.59.51-4,1.08-.25.12-.42.19-.53.19-.04,0-.11-.05-.22-.15Zm-1.33-2.15c.5-.24.92-.55,1.27-.95v-6.04c0-.5-.16-.98-.46-1.46-.31-.48-.73-.86-1.26-1.16-.53-.3-1.1-.45-1.72-.45-.54,0-1.07.17-1.6.51s-.97.89-1.32,1.66c-.35.76-.53,1.74-.53,2.91,0,1.28.23,2.32.68,3.12.45.8,1,1.36,1.64,1.71s1.25.51,1.83.51c.48,0,.96-.12,1.46-.36Z"></path><path class="cls-4" d="m203.03,39.39c-.42-.28-.77-.63-1.04-1.05-.27-.42-.4-.84-.4-1.26,0-.66.19-1.2.56-1.61.37-.41.97-.8,1.8-1.15l3.01-1.27c.41-.17.66-.31.74-.43.08-.12.13-.4.15-.84l.06-1.89c.02-.58-.12-1.05-.42-1.41-.3-.36-.72-.54-1.26-.54-.29,0-.58.05-.88.15-.3.1-.54.24-.73.4-.17.17-.25.43-.25.81l.03.68c0,.17-.29.4-.88.7-.59.3-1.06.45-1.41.45-.12,0-.22-.04-.29-.12-.07-.08-.11-.18-.11-.28,0-.68.43-1.4,1.3-2.14.72-.64,1.55-1.17,2.48-1.6.93-.42,1.73-.64,2.39-.64.87,0,1.57.29,2.11.88.54.59.8,1.35.77,2.28l-.15,7.01c-.02.46.07.83.28,1.12.21.29.46.43.77.43.5,0,.87-.12,1.12-.37.08-.08.15-.12.22-.12.1,0,.19.04.26.11.07.07.11.15.11.23,0,.23-.15.49-.43.77-.35.35-.73.63-1.13.82-.4.2-.79.29-1.16.29-1.05,0-1.88-.56-2.48-1.67h-.09c-.68.6-1.32,1.03-1.92,1.29-.6.26-1.22.39-1.86.39-.41,0-.83-.14-1.26-.42Zm4.39-1.91c.21-.21.32-.58.34-1.12l.06-1.77v-.16c0-.29-.09-.43-.28-.43-.12,0-.3.05-.53.15-.91.35-1.56.71-1.94,1.08-.38.37-.57.8-.57,1.27,0,.52.14.91.42,1.19.28.28.6.42.98.42.58,0,1.09-.22,1.52-.65Z"></path><path class="cls-4" d="m213.9,39.13c0-.14.06-.25.17-.33.11-.07.29-.16.54-.26.45-.14.78-.28.98-.42.2-.13.29-.39.29-.76v-15.34c0-1.32-.45-2.08-1.36-2.26-.17-.04-.25-.19-.25-.43,0-.23.07-.36.22-.4.89-.19,1.73-.44,2.53-.76.8-.32,1.28-.51,1.44-.57.12-.04.22-.06.28-.06s.11.03.14.09c.03.06.05.12.05.19,0,.12-.03.48-.09,1.07-.06.59-.09,1.39-.09,2.4v16.09c0,.37.1.63.31.77.21.15.53.28.96.4.48.17.71.36.71.59,0,.21-.21.31-.62.31s-.91-.02-1.49-.06c-.54-.04-.98-.06-1.33-.06-.33,0-.76.02-1.3.06-.39.06-.88.09-1.46.09-.41,0-.62-.11-.62-.34Z"></path><path class="cls-4" d="m224.68,38.97c-.87-.58-1.55-1.38-2.03-2.4-.49-1.02-.73-2.2-.73-3.52,0-1.2.28-2.31.85-3.33.57-1.02,1.33-1.84,2.29-2.45.96-.61,2-.91,3.12-.91,1.28,0,2.34.38,3.18,1.15.84.76,1.26,1.73,1.26,2.88,0,.35-.08.61-.23.78-.15.17-.4.25-.73.25h-6.42c-.29,0-.49.08-.6.25-.11.17-.17.47-.17.9,0,.91.2,1.75.59,2.51.39.77.94,1.37,1.63,1.81.69.44,1.45.67,2.28.67,1.16,0,2.19-.45,3.1-1.36.1-.17.22-.25.34-.25.19,0,.28.11.28.34,0,.31-.15.7-.43,1.18-.43.7-1.06,1.28-1.88,1.72-.82.44-1.72.67-2.71.67-1.12,0-2.11-.29-2.98-.87Zm3.07-8.62c.93,0,1.64-.05,2.14-.15.19-.06.28-.32.28-.78,0-.58-.24-1.07-.71-1.47-.48-.4-1.04-.6-1.71-.6-.43,0-.88.13-1.33.4-.46.27-.82.61-1.1,1.02-.28.41-.42.82-.42,1.21,0,.25.13.37.4.37h2.45Z"></path><path class="cls-4" d="m242.01,38.42c-.27-.23-.42-.44-.46-.65-.23-.66-.36-1.89-.4-3.69,0-.14.06-.25.17-.33.11-.07.26-.11.45-.11.29,0,.48.12.56.37.41,1.51,1.04,2.67,1.88,3.47.84.81,1.77,1.21,2.81,1.21s1.87-.33,2.5-.99c.63-.66.95-1.5.95-2.51,0-.74-.13-1.37-.39-1.88-.26-.51-.62-.94-1.07-1.3-.46-.36-1.14-.81-2.05-1.35-1.24-.74-2.17-1.34-2.8-1.8-.63-.45-1.18-1.04-1.66-1.75-.48-.71-.71-1.57-.71-2.56,0-1.1.27-2.08.81-2.96.54-.88,1.32-1.57,2.34-2.06,1.02-.5,2.23-.74,3.61-.74,1.2,0,2.37.24,3.5.71.35.15.59.42.71.84.35,1.41.53,2.5.53,3.29,0,.1-.05.19-.14.25-.09.06-.21.09-.36.09-.19,0-.36-.04-.53-.12-.17-.08-.27-.19-.31-.31-.41-1.18-.94-2.06-1.57-2.65-.63-.59-1.39-.88-2.28-.88-1.01,0-1.82.27-2.43.81-.61.54-.91,1.36-.91,2.48,0,.76.34,1.45,1.02,2.06.68.61,1.78,1.37,3.29,2.28,1.51.93,2.63,1.83,3.38,2.71.74.88,1.12,2,1.12,3.36,0,1.92-.63,3.43-1.89,4.51-1.26,1.08-2.96,1.63-5.08,1.63-1.78,0-3.3-.48-4.56-1.43Z"></path><path class="cls-4" d="m257.31,39.39c-.42-.28-.77-.63-1.04-1.05-.27-.42-.4-.84-.4-1.26,0-.66.19-1.2.56-1.61s.97-.8,1.8-1.15l3.01-1.27c.41-.17.66-.31.74-.43.08-.12.13-.4.16-.84l.06-1.89c.02-.58-.12-1.05-.42-1.41-.3-.36-.72-.54-1.26-.54-.29,0-.58.05-.88.15-.3.1-.54.24-.73.4-.17.17-.25.43-.25.81l.03.68c0,.17-.29.4-.88.7-.59.3-1.06.45-1.41.45-.12,0-.22-.04-.29-.12-.07-.08-.11-.18-.11-.28,0-.68.43-1.4,1.3-2.14.72-.64,1.55-1.17,2.48-1.6.93-.42,1.73-.64,2.39-.64.87,0,1.57.29,2.11.88.54.59.79,1.35.78,2.28l-.16,7.01c-.02.46.07.83.28,1.12.21.29.47.43.78.43.5,0,.87-.12,1.12-.37.08-.08.16-.12.22-.12.1,0,.19.04.26.11.07.07.11.15.11.23,0,.23-.14.49-.43.77-.35.35-.73.63-1.13.82-.4.2-.79.29-1.16.29-1.05,0-1.88-.56-2.48-1.67h-.09c-.68.6-1.32,1.03-1.92,1.29-.6.26-1.22.39-1.86.39-.41,0-.83-.14-1.26-.42Zm4.39-1.91c.21-.21.32-.58.34-1.12l.06-1.77v-.16c0-.29-.09-.43-.28-.43-.12,0-.3.05-.53.15-.91.35-1.56.71-1.94,1.08-.38.37-.57.8-.57,1.27,0,.52.14.91.42,1.19.28.28.6.42.98.42.58,0,1.08-.22,1.52-.65Z"></path><path class="cls-4" d="m268.5,39.38c-.11-.06-.17-.15-.17-.28,0-.14.06-.26.17-.34.11-.08.29-.15.54-.22.41-.1.73-.23.95-.39.22-.15.33-.42.33-.79v-6.82c0-.6-.07-1.06-.22-1.38-.15-.32-.43-.54-.87-.67-.21-.04-.31-.19-.31-.43,0-.27.09-.41.28-.43,1.32-.35,2.52-.88,3.6-1.58.17-.12.3-.19.4-.19.14,0,.22.09.22.28l-.06.62c-.02.15-.04.33-.06.56-.02.23-.03.46-.03.71,0,.23.02.36.06.4.72-.7,1.48-1.22,2.26-1.57.79-.34,1.65-.51,2.6-.51,1.03,0,1.89.41,2.57,1.22.68.82,1.02,1.85,1.02,3.12v6.7c0,.37.1.62.31.74.21.12.54.26.99.4.46.17.68.36.68.59s-.2.34-.59.34c-.58,0-1.07-.03-1.49-.09-.54-.04-.97-.06-1.3-.06s-.77.02-1.3.06c-.39.06-.89.09-1.49.09-.15,0-.28-.03-.4-.08s-.19-.14-.19-.26c0-.23.23-.42.68-.59.45-.14.78-.28.98-.4.2-.12.29-.37.29-.74v-6.42c0-.85-.23-1.51-.68-2-.46-.49-1.06-.74-1.83-.76-1.14,0-2.15.36-3.04,1.08-.17.17-.25.38-.25.65v7.44c0,.37.1.63.31.77.21.15.52.27.93.37.45.12.68.31.68.56s-.2.37-.59.37c-.56,0-1.04-.03-1.46-.09-.5-.04-.92-.06-1.27-.06-.33,0-.76.02-1.3.06-.43.06-.94.09-1.52.09-.19,0-.34-.03-.45-.09Z"></path><path class="cls-4" d="m297.97,38.52c-1.74-.88-3.13-2.11-4.17-3.69-1.04-1.58-1.57-3.38-1.57-5.41s.54-3.72,1.61-5.35c1.08-1.62,2.54-2.9,4.4-3.84,1.86-.94,3.91-1.41,6.14-1.41,1.05,0,1.97.07,2.76.22.79.14,1.72.37,2.82.68.27.08.47.2.6.36.13.15.21.37.23.64.12,1.2.22,2.4.28,3.6,0,.14-.06.26-.17.36-.11.09-.23.14-.36.14-.31,0-.51-.16-.59-.47-.21-.79-.44-1.43-.7-1.92-.26-.5-.6-.91-1.04-1.24-1.01-.79-2.44-1.18-4.28-1.18-1.51,0-2.86.4-4.05,1.21s-2.12,1.87-2.79,3.19c-.67,1.32-1.01,2.74-1.01,4.25,0,1.76.33,3.4.98,4.93.65,1.53,1.58,2.75,2.79,3.67,1.21.92,2.62,1.38,4.23,1.38,1.47,0,2.69-.32,3.66-.96.97-.64,1.8-1.62,2.48-2.94.17-.29.38-.43.65-.43.12,0,.23.04.31.12.08.08.12.21.12.37,0,.29-.08.75-.23,1.4s-.34,1.24-.54,1.8c-.12.27-.24.46-.34.56-.1.1-.3.21-.59.31-.76.31-1.68.55-2.74.73-1.06.18-2.17.26-3.3.26-2,0-3.88-.44-5.61-1.32Z"></path><path class="cls-4" d="m315.37,39.39c-.42-.28-.77-.63-1.04-1.05-.27-.42-.4-.84-.4-1.26,0-.66.19-1.2.56-1.61s.97-.8,1.8-1.15l3.01-1.27c.41-.17.66-.31.74-.43.08-.12.13-.4.16-.84l.06-1.89c.02-.58-.12-1.05-.42-1.41-.3-.36-.72-.54-1.26-.54-.29,0-.58.05-.88.15-.3.1-.54.24-.73.4-.17.17-.25.43-.25.81l.03.68c0,.17-.29.4-.88.7-.59.3-1.06.45-1.41.45-.12,0-.22-.04-.29-.12-.07-.08-.11-.18-.11-.28,0-.68.43-1.4,1.3-2.14.72-.64,1.55-1.17,2.48-1.6.93-.42,1.73-.64,2.39-.64.87,0,1.57.29,2.11.88.54.59.79,1.35.78,2.28l-.16,7.01c-.02.46.07.83.28,1.12.21.29.47.43.78.43.5,0,.87-.12,1.12-.37.08-.08.16-.12.22-.12.1,0,.19.04.26.11.07.07.11.15.11.23,0,.23-.14.49-.43.77-.35.35-.73.63-1.13.82-.4.2-.79.29-1.16.29-1.05,0-1.88-.56-2.48-1.67h-.09c-.68.6-1.32,1.03-1.92,1.29-.6.26-1.22.39-1.86.39-.41,0-.83-.14-1.26-.42Zm4.39-1.91c.21-.21.32-.58.34-1.12l.06-1.77v-.16c0-.29-.09-.43-.28-.43-.12,0-.3.05-.53.15-.91.35-1.55.71-1.94,1.08-.38.37-.57.8-.57,1.27,0,.52.14.91.42,1.19.28.28.6.42.98.42.58,0,1.08-.22,1.52-.65Z"></path><path class="cls-4" d="m326.39,39.1c0-.14.06-.25.17-.33.11-.07.29-.15.54-.23.43-.14.75-.28.96-.42.21-.13.31-.39.31-.76v-6.82c0-.6-.07-1.07-.22-1.41-.15-.34-.43-.55-.87-.64-.21-.04-.31-.19-.31-.43,0-.27.09-.41.28-.43.74-.19,1.37-.4,1.89-.65s1.12-.58,1.8-.99c.17-.08.27-.12.31-.12.14,0,.22.08.22.25l-.06.68c-.02.14-.04.33-.06.56s-.03.46-.03.71c0,.21.02.33.06.37h.06c1.43-1.38,3.01-2.08,4.74-2.08,1.45,0,2.47.74,3.07,2.23h.09c1.49-1.49,3.13-2.23,4.93-2.23.97,0,1.75.42,2.34,1.26s.88,1.87.88,3.08v6.7c0,.37.1.62.29.74.2.12.52.26.98.4.23.06.4.13.51.22.11.08.17.2.17.34,0,.25-.2.37-.59.37-.56,0-1.04-.03-1.46-.09-.5-.04-.92-.06-1.27-.06s-.78.02-1.27.06c-.39.06-.88.09-1.46.09-.39,0-.59-.12-.59-.37,0-.14.06-.26.17-.34.11-.08.28-.15.51-.22.37-.1.66-.23.85-.37.2-.14.29-.38.29-.71v-6.48c0-.74-.22-1.4-.65-1.95-.43-.56-.95-.84-1.55-.84-.95,0-1.75.27-2.39.81-.48.37-.71,1-.71,1.89v6.51c0,.37.1.63.31.77.21.15.52.27.93.37.23.08.4.16.51.23.11.07.17.18.17.33,0,.25-.2.37-.59.37-.56,0-1.04-.03-1.46-.09-.5-.04-.92-.06-1.27-.06s-.78.02-1.27.06c-.39.06-.88.09-1.46.09-.17,0-.3-.03-.42-.09-.11-.06-.17-.15-.17-.28,0-.14.06-.25.17-.33.11-.07.28-.15.51-.23.37-.1.66-.23.87-.37.21-.14.31-.38.31-.71v-6.48c0-.74-.21-1.39-.64-1.94-.42-.55-.95-.83-1.57-.85-.91,0-1.71.27-2.39.81-.46.31-.68.93-.68,1.86v6.54c0,.35.09.6.28.74.19.15.47.28.87.4.23.08.4.16.51.23.11.07.17.18.17.33,0,.25-.2.37-.59.37-.58,0-1.05-.03-1.43-.09-.5-.04-.91-.06-1.24-.06s-.76.02-1.3.06c-.39.06-.89.09-1.49.09-.41,0-.62-.12-.62-.37Z"></path><path class="cls-4" d="m350.82,39.1c0-.23.22-.4.65-.53.52-.14.88-.29,1.08-.45.21-.16.31-.4.31-.73v-6.7c0-1.32-.46-2.06-1.39-2.2-.21-.02-.31-.18-.31-.47,0-.25.09-.38.28-.4,1.34-.29,2.61-.84,3.81-1.64.25-.14.41-.22.5-.22.17,0,.25.08.25.25,0,.12-.04.6-.12,1.43-.12,1.24-.19,2.2-.19,2.88v7.07c0,.31.11.55.33.73.22.18.57.33,1.07.45.43.12.65.3.65.53,0,.25-.19.37-.56.37-.54,0-1.04-.03-1.52-.09-.58-.04-1.04-.06-1.39-.06s-.8.02-1.33.06c-.43.06-.94.09-1.52.09-.39,0-.59-.12-.59-.37Zm2.06-16.01c-.36-.36-.54-.8-.54-1.32s.18-.99.54-1.35c.36-.36.8-.54,1.32-.54s.99.18,1.36.54c.37.36.56.81.56,1.35s-.19.96-.56,1.32c-.37.36-.83.54-1.36.54s-.96-.18-1.32-.54Z"></path><path class="cls-4" d="m358.82,39.13c0-.14.06-.25.17-.33.11-.07.29-.16.54-.26.45-.14.78-.28.98-.42.2-.13.29-.39.29-.76v-15.34c0-1.32-.46-2.08-1.36-2.26-.17-.04-.25-.19-.25-.43,0-.23.07-.36.22-.4.89-.19,1.73-.44,2.53-.76.79-.32,1.28-.51,1.44-.57.12-.04.22-.06.28-.06s.11.03.14.09c.03.06.05.12.05.19,0,.12-.03.48-.09,1.07-.06.59-.09,1.39-.09,2.4v16.09c0,.37.1.63.31.77.21.15.53.28.96.4.48.17.71.36.71.59,0,.21-.21.31-.62.31s-.91-.02-1.49-.06c-.54-.04-.98-.06-1.33-.06-.33,0-.76.02-1.3.06-.39.06-.88.09-1.46.09-.41,0-.62-.11-.62-.34Z"></path><path class="cls-4" d="m366.75,39.13c0-.14.06-.25.17-.33.11-.07.29-.16.54-.26.45-.14.78-.28.98-.42.2-.13.29-.39.29-.76v-15.34c0-1.32-.46-2.08-1.36-2.26-.17-.04-.25-.19-.25-.43,0-.23.07-.36.22-.4.89-.19,1.73-.44,2.53-.76.79-.32,1.28-.51,1.44-.57.12-.04.22-.06.28-.06s.11.03.14.09c.03.06.05.12.05.19,0,.12-.03.48-.09,1.07-.06.59-.09,1.39-.09,2.4v16.09c0,.37.1.63.31.77.21.15.53.28.96.4.48.17.71.36.71.59,0,.21-.21.31-.62.31s-.91-.02-1.49-.06c-.54-.04-.98-.06-1.33-.06-.33,0-.76.02-1.3.06-.39.06-.88.09-1.46.09-.41,0-.62-.11-.62-.34Z"></path><path class="cls-4" d="m378.02,39c-.96-.54-1.72-1.29-2.28-2.26-.56-.97-.84-2.06-.84-3.26s.31-2.35.93-3.46c.62-1.1,1.47-2,2.54-2.68,1.08-.68,2.24-1.02,3.5-1.02s2.3.29,3.3.87c1,.58,1.79,1.35,2.37,2.33.58.97.87,2.02.87,3.13,0,1.28-.27,2.47-.82,3.56-.55,1.1-1.36,1.97-2.45,2.62s-2.39.98-3.92.98c-1.18,0-2.25-.27-3.21-.81Zm6.59-1.74c.43-.81.65-2.1.65-3.88,0-1.03-.17-2-.5-2.91-.33-.91-.79-1.64-1.38-2.2-.59-.56-1.27-.84-2.03-.84-.5,0-.93.08-1.3.23-.37.16-.71.42-1.02.79-.35.46-.6,1.04-.74,1.75-.14.71-.22,1.57-.22,2.56s.17,1.97.5,2.88c.33.91.79,1.65,1.38,2.22.59.57,1.24.85,1.94.85,1.28,0,2.19-.49,2.73-1.46Z"></path><path class="cls-4" d="m134.62,112.96c0-.33.19-.58.56-.77.37-.19.96-.35,1.75-.49,1.82-.33,3.19-.91,4.1-1.75s1.37-2.08,1.37-3.71v-27.16c0-3.13-.1-5.24-.32-6.33-.21-1.1-.59-1.69-1.15-1.79-.61-.14-1.32-.22-2.13-.25-.82-.02-1.76-.04-2.84-.04h-3.29c-1.21,0-2.36.23-3.43.7-1.07.47-1.84,1.14-2.31,2.03-.28.56-.71,1.14-1.29,1.75-.58.61-1.11.91-1.58.91-.33,0-.49-.3-.49-.91,0-.47.12-.93.35-1.4.65-1.26,1.12-2.42,1.4-3.46.28-1.05.54-2.34.77-3.88.14-1.07.54-1.61,1.19-1.61.14,0,.41.26.8.77.4.51.71,1,.95,1.47.28.47.9.82,1.85,1.05.96.23,1.97.35,3.04.35h24.64c2.89,0,5.11-.35,6.65-1.05.28-.14.69-.41,1.23-.8.54-.4,1.04-.59,1.5-.59.14,0,.26.17.35.52.09.35.14.71.14,1.09,0,.19-.09.84-.28,1.96l-.42,2.1c-.19.56-.28,1.24-.28,2.03v.84c0,.47-.1.96-.31,1.47-.21.51-.48.77-.8.77s-.58-.22-.77-.67c-.19-.44-.37-1.18-.56-2.21-.19-1.03-.77-1.82-1.75-2.38-.98-.56-2.54-.84-4.69-.84h-7.07c-1.17,0-1.97.14-2.42.42-.44.28-.73.94-.88,1.99-.14,1.05-.21,2.93-.21,5.63v27.51c0,1.63.47,2.87,1.4,3.71.93.84,2.31,1.42,4.13,1.75.79.14,1.38.3,1.75.49.37.19.56.44.56.77,0,.51-.68.77-2.03.77-1.73,0-3.22-.07-4.48-.21-1.49-.09-2.73-.14-3.71-.14-1.17,0-2.59.05-4.27.14-1.4.14-2.96.21-4.69.21-1.35,0-2.03-.26-2.03-.77Z"></path><path class="cls-4" d="m163.6,112.82c0-.33.12-.55.35-.67.23-.12.65-.27,1.26-.46,1.77-.42,2.66-1.31,2.66-2.66v-15.05c0-1.4-.21-2.53-.63-3.4-.42-.86-1.17-1.41-2.24-1.64-.19-.05-.35-.16-.49-.35-.14-.19-.21-.37-.21-.56s.07-.36.21-.53c.14-.16.28-.27.42-.31,1.87-.61,4.18-1.75,6.93-3.43.51-.33.86-.49,1.05-.49.23,0,.35.16.35.49,0,1.26-.07,3.01-.21,5.25,0,.09.05.14.14.14,1.17-1.4,2.47-2.54,3.92-3.43,1.45-.89,2.82-1.33,4.13-1.33.98,0,1.79.21,2.42.63s.94.96.94,1.61c0,.75-.29,1.54-.88,2.38-.58.84-1.2,1.26-1.85,1.26-.47,0-1.12-.21-1.96-.63-.14-.05-.46-.16-.94-.35-.49-.19-.92-.28-1.29-.28-1.35,0-2.5.44-3.43,1.33-.93.89-1.4,2.4-1.4,4.55v14.14c0,.61.3,1.11.91,1.5.61.4,1.54.78,2.8,1.16.56.19.97.35,1.23.49.26.14.38.35.38.63,0,.51-.47.77-1.4.77-1.26,0-2.36-.07-3.29-.21-1.12-.09-2.05-.14-2.8-.14s-1.63.05-2.66.14c-.75.14-1.75.21-3.01.21-.93,0-1.4-.26-1.4-.77Z"></path><path class="cls-4" d="m193.18,112.54c-1.94-1.26-3.44-3.04-4.52-5.36-1.07-2.31-1.61-4.98-1.61-8.01,0-2.61.62-5.06,1.85-7.35,1.24-2.29,2.88-4.1,4.94-5.43,2.05-1.33,4.29-2,6.72-2,2.8,0,5.1.83,6.9,2.49,1.8,1.66,2.7,3.77,2.7,6.33,0,1.45-.7,2.17-2.1,2.17h-14.77c-.65,0-1.11.17-1.37.53-.26.35-.38,1.04-.38,2.06,0,2.19.48,4.22,1.44,6.09.96,1.87,2.26,3.35,3.92,4.44,1.66,1.1,3.46,1.65,5.42,1.65,2.75,0,5.04-1.05,6.86-3.15.28-.37.54-.56.77-.56.37,0,.56.23.56.7,0,.89-.42,1.87-1.26,2.94-1.03,1.35-2.38,2.42-4.06,3.18-1.68.77-3.45,1.16-5.32,1.16-2.52,0-4.75-.63-6.69-1.89Zm6.61-19.32c2.19,0,3.92-.12,5.18-.35.37-.05.56-.56.56-1.54,0-1.35-.6-2.51-1.79-3.46-1.19-.96-2.6-1.44-4.23-1.44-1.03,0-2.09.32-3.19.95-1.1.63-2,1.41-2.69,2.34-.7.93-1.05,1.87-1.05,2.8,0,.47.28.7.84.7h6.37Z"></path><path class="cls-4" d="m225.97,112.19c-.23-.47-.61-1.52-1.12-3.15l-.63-1.75c-.56-1.54-1.89-4.9-3.99-10.08l-2.8-6.86c-.33-.84-.83-1.6-1.51-2.27-.68-.68-1.36-1.11-2.06-1.29-.47-.19-.79-.35-.98-.49-.19-.14-.28-.35-.28-.63,0-.42.47-.63,1.4-.63,1.21,0,2.12.07,2.73.21.75.09,1.54.14,2.38.14.79,0,1.61-.05,2.45-.14.7-.14,1.63-.21,2.8-.21.93,0,1.4.21,1.4.63,0,.33-.14.57-.42.73-.28.16-.68.34-1.19.53-.47.19-.82.54-1.05,1.05-.23.51-.35,1.12-.35,1.82,0,.75.09,1.38.28,1.89l5.53,14.7c.09.05.16.05.21,0l5.32-13.65c.37-.98.56-1.94.56-2.87s-.14-1.53-.42-1.93c-.28-.4-.75-.73-1.4-1.01-.65-.23-1.08-.43-1.29-.59-.21-.16-.31-.39-.31-.67,0-.42.47-.63,1.4-.63.19,0,.7.05,1.54.14,1.82.14,3.01.21,3.57.21s1.47-.07,2.73-.21c.56-.09,1.03-.14,1.4-.14.93,0,1.4.21,1.4.63,0,.28-.12.51-.35.7-.23.19-.65.37-1.26.56-.75.23-1.54.79-2.38,1.68-.84.89-1.49,1.89-1.96,3.01l-5.46,13.16c-.37.93-.85,2.16-1.44,3.68-.58,1.52-.99,2.6-1.23,3.25-.09.28-.33.8-.7,1.57-.37.77-.65,1.3-.84,1.58h-.42c-.23,0-.65-.89-1.26-2.66Z"></path><path class="cls-4" d="m244.59,112.82c0-.33.13-.56.39-.7.26-.14.67-.28,1.22-.42,1.07-.28,1.84-.6,2.31-.95s.7-.92.7-1.71v-15.19c0-3.08-1.05-4.78-3.15-5.11-.47-.05-.7-.35-.7-.91,0-.51.21-.79.63-.84,2.85-.65,5.3-1.82,7.35-3.5.42-.33.75-.49.98-.49.28,0,.42.12.42.35,0,.51-.07,1.4-.21,2.66-.05.56-.13,1.6-.25,3.12-.12,1.52-.17,2.74-.17,3.67v16.24c0,.75.25,1.31.73,1.68.49.37,1.25.7,2.28.98.56.14.97.28,1.22.42.26.14.39.37.39.7,0,.51-.47.77-1.4.77-1.17,0-2.15-.07-2.94-.21-1.03-.09-1.94-.14-2.73-.14-.75,0-1.63.05-2.66.14-.75.14-1.75.21-3.01.21-.93,0-1.4-.26-1.4-.77Zm4.52-36.58c-.68-.68-1.02-1.5-1.02-2.49s.34-1.88,1.02-2.55c.68-.68,1.5-1.01,2.48-1.01s1.88.34,2.56,1.01c.68.68,1.01,1.53,1.01,2.55s-.34,1.81-1.01,2.49c-.68.68-1.53,1.01-2.56,1.01s-1.81-.34-2.48-1.01Z"></path><path class="cls-4" d="m266.08,113.69c-1.26-.44-2.33-1.06-3.22-1.86-.37-.75-.63-2.61-.77-5.6,0-.42.3-.63.91-.63.51,0,.79.16.84.49.56,2.15,1.48,3.75,2.76,4.79,1.28,1.05,2.67,1.58,4.17,1.58,1.35,0,2.51-.46,3.46-1.37.96-.91,1.44-2.04,1.44-3.39,0-1.21-.41-2.28-1.23-3.19-.82-.91-2.3-2.04-4.44-3.39-2.43-1.49-4.14-2.88-5.15-4.17-1-1.28-1.5-2.79-1.5-4.51,0-2.33.82-4.26,2.45-5.78,1.63-1.52,3.97-2.28,7-2.28,1.31,0,2.44.13,3.39.39.96.26,1.69.57,2.21.94.37.51.69,1.32.95,2.42.26,1.1.38,2.14.38,3.12,0,.33-.23.49-.7.49-.28,0-.56-.06-.84-.17-.28-.12-.44-.27-.49-.46-.65-1.59-1.43-2.78-2.34-3.57-.91-.79-2.02-1.19-3.33-1.19-1.21,0-2.26.37-3.15,1.12-.89.75-1.33,1.75-1.33,3.01,0,1.12.34,2.09,1.01,2.9.68.82,1.95,1.76,3.82,2.83,2.94,1.68,5.02,3.19,6.23,4.52,1.21,1.33,1.82,3.02,1.82,5.08,0,2.52-.96,4.57-2.87,6.16-1.91,1.59-4.39,2.38-7.42,2.38-1.45,0-2.8-.22-4.06-.67Z"></path><path class="cls-4" d="m292.02,112.54c-2.12-1.21-3.8-2.89-5.04-5.04s-1.85-4.55-1.85-7.21.69-5.09,2.06-7.56c1.38-2.47,3.24-4.48,5.6-6.02,2.36-1.54,4.91-2.31,7.67-2.31s5.09.64,7.28,1.93c2.19,1.28,3.93,3.01,5.22,5.18,1.28,2.17,1.92,4.49,1.92,6.96,0,2.8-.61,5.41-1.82,7.84s-3.01,4.38-5.39,5.85c-2.38,1.47-5.25,2.21-8.61,2.21-2.57,0-4.91-.61-7.04-1.82Zm15.71-4.13c.93-1.82,1.4-4.57,1.4-8.26,0-2.24-.42-4.41-1.26-6.51-.84-2.1-2.01-3.8-3.5-5.11-1.49-1.31-3.2-1.96-5.11-1.96-1.35,0-2.52.21-3.5.63-.98.42-1.87,1.14-2.66,2.17-.84,1.07-1.42,2.39-1.75,3.96-.33,1.56-.49,3.35-.49,5.35,0,2.33.42,4.54,1.26,6.62.84,2.08,2,3.76,3.46,5.04,1.47,1.28,3.12,1.92,4.93,1.92,3.5,0,5.9-1.28,7.21-3.85Z"></path></g></g></svg> 