<?xml version="1.0" encoding="utf-8"?>
<!-- Generator: Adobe Illustrator 27.5.0, SVG Export Plug-In . SVG Version: 6.00 Build 0)  -->
<svg version="1.1" id="Livello_2" xmlns="http://www.w3.org/2000/svg" xmlns:xlink="http://www.w3.org/1999/xlink" x="0px" y="0px"
	 viewBox="0 0 595.28 595.28" style="enable-background:new 0 0 595.28 595.28;" xml:space="preserve">
<style type="text/css">
	.st0{fill:#00754A;}
	.st1{fill:#FFFFFF;}
</style>
<rect class="st0" width="595.28" height="595.28"/>
<path class="st1" d="M26.19,357.17l40-118.73h23.94l39.56,118.73h-24.16l-8.41-27.48H58.38l-8.73,27.48H26.19z M64.34,310.19h26.84
	l-13.25-42.47L64.34,310.19z"/>
<path class="st1" d="M133.67,357.17v-86h20.04v16.08c0,0,7.48-18.31,24.29-18.31c2.91,0,5.03,0.84,5.03,0.84v22
	c0,0-3.44-0.88-7.56-0.88s-20.72,1.01-20.72,25.72c0,19.62,0,40.54,0,40.54H133.67z"/>
<path class="st1" d="M188.17,357.17v-86h20.04v16.08c0,0,7.48-18.31,24.29-18.31c2.91,0,5.03,0.84,5.03,0.84v22
	c0,0-3.44-0.88-7.56-0.88s-20.72,1.01-20.72,25.72c0,19.62,0,40.54,0,40.54H188.17z"/>
<path class="st1" d="M236.69,314.94c0.06-12.85,5.48-45.94,39.4-46c30.75,0.31,37.83,31.73,36.88,51.06c-7.29,0.08-55.21,0-55.21,0
	s-1.12,21.81,18.69,21.81c11.75,0,16.19-9.81,16.56-11.25h18.62c0,0-5.31,28.81-35.38,28.81S236.69,334.38,236.69,314.94z
	 M257.62,304.88h34.19c0,0-0.65-18.17-16.95-18.17C258.92,286.79,257.62,304.88,257.62,304.88z"/>
<path class="st1" d="M375.92,281.58v-43.17h21.25v118.75h-20.1v-10.92c0,0-6.25,13.19-23.5,13.19s-34-14.12-34.56-45.28
	c0-31.28,17.08-45.22,34.33-45.22C369.67,268.94,375.92,281.58,375.92,281.58z M358.5,341.67c14,0,18.25-14.17,18.25-27.51
	c0-13.34-4.17-27.41-18-27.41s-18.5,14.08-18.5,27.41C340.25,325.75,344.5,341.67,358.5,341.67z"/>
<path class="st1" d="M446.92,268.75c18.08,0,39.96,11.79,39.96,45.46s-21.42,45.23-39.96,45.23c-18.54,0-39.42-12.52-39.42-45.23
	S428.96,268.75,446.92,268.75z M428.67,314.21c0,21.71,10.08,27.46,18.52,27.46s18.56-4.83,18.56-27.57
	c0-22.74-11.25-27.34-18.56-27.34C438.88,286.75,428.67,292.5,428.67,314.21z"/>
<path class="st1" d="M515.62,271.17h-20.25c0,0,3.54-32.75,35.13-32.75c23.92,0,34.83,17.58,34.83,32.75
	c0,19.96-14.46,23.52-14.46,23.52s18.38,2.73,18.38,28.06s-21.83,36.69-38.58,36.69c-18.83,0-38.42-11.6-38.42-39.52
	c7,0,20.17,0,20.17,0S513.84,340,530.75,340c11.94,0,17.25-10.21,16.5-19.75c0-13.58-11.29-16.38-23.92-15.67v-16.77
	c0,0,22.04,3.19,22.04-14.65c0-11.79-9.17-15.25-14.62-15.25C521.33,257.92,516.58,265.58,515.62,271.17z"/>
<path class="st1" d="M147.96,455.92h4.58c0,0,1.46-10.29-8.71-10.29c-9.54,0-9.46,12.21-9.46,15.92c0,3.71-0.96,16.12,9.46,16.12
	c10.42,0,8.78-11.71,8.78-11.71h-4.49c0,0,0.59,7.95-4.22,7.95s-4.78-6.93-4.78-12.26c0-5.33-0.03-12.27,4.69-12.27
	C148.53,449.38,147.96,455.92,147.96,455.92z"/>
<path class="st1" d="M273.96,455.92h4.58c0,0,1.46-10.29-8.71-10.29c-9.54,0-9.46,12.21-9.46,15.92c0,3.71-0.96,16.12,9.46,16.12
	c10.42,0,8.78-11.71,8.78-11.71h-4.49c0,0,0.59,7.95-4.22,7.95s-4.78-6.93-4.78-12.26c0-5.33-0.03-12.27,4.69-12.27
	C274.53,449.38,273.96,455.92,273.96,455.92z"/>
<path class="st1" d="M214.89,469v-22.83h-4.62V469c0,0,0.32,4.89-4.1,4.89c-4.42,0-4.17-4.89-4.17-4.89v-22.83h-4.62V469
	c0,0-0.52,8.72,8.76,8.72C215.41,477.72,214.89,469,214.89,469z"/>
<rect x="323.46" y="446.17" class="st1" width="4.58" height="30.79"/>
<polygon class="st1" points="374.38,476.96 374.38,446.17 379.96,446.17 388.29,469.04 388.29,446.17 392.67,446.17 392.67,476.96 
	387.04,476.96 378.75,453.58 378.75,476.96 "/>
<polygon class="st1" points="439.17,476.96 439.17,446.17 454.67,446.17 454.67,450.5 443.79,450.5 443.79,458.92 454.04,458.92 
	454.04,463.12 443.79,463.12 443.79,472.88 455,472.88 455,476.96 "/>
<path class="st1" d="M295.27,150.47c0,15.68-12.71,28.39-28.39,28.39s-28.39-12.71-28.39-28.39s12.71-28.39,28.39-28.39h28.39
	V150.47z"/>
<path class="st1" d="M329.31,122.08c15.68,0,28.39,12.71,28.39,28.39s-12.71,28.39-28.39,28.39c-15.68,0-28.39-12.71-28.39-28.39
	v-28.39H329.31z"/>
<path class="st1" d="M300.92,90.88c0-14.11,11.44-25.56,25.56-25.56c14.11,0,25.56,11.44,25.56,25.56s-11.44,25.56-25.56,25.56
	h-25.56V90.88z"/>
</svg>
